<svg width="1200" height="560" viewBox="0 0 1200 560" fill="none" xmlns="http://www.w3.org/2000/svg" role="img" aria-labelledby="title desc">
  <title id="title">Before and after using PDD</title>
  <desc id="desc">A comparison between a generic agent workflow and a PDD workflow.</desc>
  <rect width="1200" height="560" rx="28" fill="#F8FAFC"/>
  <rect x="40" y="42" width="540" height="476" rx="24" fill="#FFF7ED" stroke="#FDBA74" stroke-width="2"/>
  <rect x="620" y="42" width="540" height="476" rx="24" fill="#F0FDF4" stroke="#86EFAC" stroke-width="2"/>

  <text x="76" y="96" fill="#9A3412" font-family="Inter, ui-sans-serif, system-ui, -apple-system, BlinkMacSystemFont, Segoe UI, sans-serif" font-size="18" font-weight="800">WITHOUT PDD</text>
  <text x="76" y="133" fill="#0F172A" font-family="Inter, ui-sans-serif, system-ui, -apple-system, BlinkMacSystemFont, Segoe UI, sans-serif" font-size="30" font-weight="800">Fast start, hidden rework</text>

  <g font-family="Inter, ui-sans-serif, system-ui, -apple-system, BlinkMacSystemFont, Segoe UI, sans-serif" font-size="17">
    <rect x="78" y="176" width="424" height="48" rx="12" fill="#FFFFFF" stroke="#FED7AA"/>
    <text x="101" y="207" fill="#334155">1. User asks for a product or code change</text>
    <rect x="78" y="242" width="424" height="48" rx="12" fill="#FFFFFF" stroke="#FED7AA"/>
    <text x="101" y="273" fill="#334155">2. Agent writes a broad plan and starts editing</text>
    <rect x="78" y="308" width="424" height="48" rx="12" fill="#FFFFFF" stroke="#FED7AA"/>
    <text x="101" y="339" fill="#334155">3. Scope, privacy, or release issues appear late</text>
    <rect x="78" y="374" width="424" height="48" rx="12" fill="#FFFFFF" stroke="#FED7AA"/>
    <text x="101" y="405" fill="#334155">4. User asks for rollback, split commit, or redo</text>
  </g>

  <path d="M520 456C442 496 254 503 135 456" stroke="#FB923C" stroke-width="4" stroke-linecap="round" stroke-dasharray="9 11"/>
  <text x="197" y="482" fill="#9A3412" font-family="Inter, ui-sans-serif, system-ui, -apple-system, BlinkMacSystemFont, Segoe UI, sans-serif" font-size="17" font-weight="700">rework loop</text>

  <text x="656" y="96" fill="#166534" font-family="Inter, ui-sans-serif, system-ui, -apple-system, BlinkMacSystemFont, Segoe UI, sans-serif" font-size="18" font-weight="800">WITH PDD</text>
  <text x="656" y="133" fill="#0F172A" font-family="Inter, ui-sans-serif, system-ui, -apple-system, BlinkMacSystemFont, Segoe UI, sans-serif" font-size="30" font-weight="800">Decision gates first</text>

  <g font-family="Inter, ui-sans-serif, system-ui, -apple-system, BlinkMacSystemFont, Segoe UI, sans-serif" font-size="17">
    <rect x="658" y="176" width="424" height="48" rx="12" fill="#FFFFFF" stroke="#BBF7D0"/>
    <text x="681" y="207" fill="#334155">1. pdd-zero writes the Decision Ledger</text>
    <rect x="658" y="242" width="424" height="48" rx="12" fill="#FFFFFF" stroke="#BBF7D0"/>
    <text x="681" y="273" fill="#334155">2. pdd-scope locks minimal implementation</text>
    <rect x="658" y="308" width="424" height="48" rx="12" fill="#FFFFFF" stroke="#BBF7D0"/>
    <text x="681" y="339" fill="#334155">3. pdd-gate separates ready vs excluded work</text>
    <rect x="658" y="374" width="424" height="48" rx="12" fill="#FFFFFF" stroke="#BBF7D0"/>
    <text x="681" y="405" fill="#334155">4. Agent edits or ships with explicit boundaries</text>
  </g>

  <path d="M694 456H1042" stroke="#22C55E" stroke-width="4" stroke-linecap="round"/>
  <path d="M1028 442L1042 456L1028 470" stroke="#22C55E" stroke-width="4" stroke-linecap="round" stroke-linejoin="round"/>
  <text x="791" y="482" fill="#166534" font-family="Inter, ui-sans-serif, system-ui, -apple-system, BlinkMacSystemFont, Segoe UI, sans-serif" font-size="17" font-weight="700">clean forward path</text>
</svg>
